<?xml version="1.0" encoding="utf-8"?>
<!-- Generator: Adobe Illustrator 19.0.0, SVG Export Plug-In . SVG Version: 6.00 Build 0)  -->
<svg version="1.1" id="Layer_1" xmlns="http://www.w3.org/2000/svg" xmlns:xlink="http://www.w3.org/1999/xlink" x="0px" y="0px"
	 width="512px" height="512px" viewBox="0 0 512 512" style="enable-background:new 0 0 512 512;" xml:space="preserve">
<style type="text/css">
	.st0{fill:#FED300;}
	.st1{fill:#3256C0;}
	.st2{fill:#93D2FD;}
	.st3{fill:#FEFEFE;}
	.st4{fill:#CFDBE6;}
	.st5{fill:#07CB66;}
</style>
<path id="XMLID_61_" class="st0" d="M253.2,56.6c110.8,0.3,200.3,90.2,199.8,200.5c-0.5,110.5-90.6,200.1-200.5,199.3
	c-111.1-0.7-200-90.3-199.5-200.8C53.5,145.3,143.2,56.2,253.2,56.6z"/>
<path id="XMLID_60_" class="st1" d="M77.8,96.4c-14-0.1-25-11.2-24.8-25.3c0.1-13.7,11.3-24.5,25.1-24.5
	C92,46.7,103.2,58,102.9,71.9C102.7,85.5,91.5,96.4,77.8,96.4z"/>
<path id="XMLID_59_" class="st1" d="M413.1,476.4c-11.1,0.1-20.1-8.6-20.1-19.7c-0.1-11.1,8.6-20,19.8-20
	c11.1-0.1,20.1,8.7,20.2,19.7C433,467.3,424.2,476.3,413.1,476.4z"/>
<path id="XMLID_58_" class="st2" d="M402.9,36.4c0.1,5.3-4.3,9.8-9.7,10c-5.7,0.2-10.2-4.2-10.3-9.8c-0.1-5.4,4.2-9.8,9.6-10
	C398.2,26.4,402.9,30.9,402.9,36.4z"/>
<path id="XMLID_57_" class="st2" d="M472.9,126.4c0.1,5.3-4.3,9.8-9.6,10c-5.7,0.2-10.2-4.2-10.3-9.8c-0.1-5.4,4.2-9.8,9.6-10
	C468.2,116.4,472.9,120.8,472.9,126.4z"/>
<path id="XMLID_56_" class="st2" d="M52.9,136.5c0,5.5-4.7,10-10.3,9.9c-5.4-0.1-9.7-4.5-9.7-9.9c0-5.6,4.5-10,10.2-9.9
	C48.6,126.7,52.9,131.2,52.9,136.5z"/>
<path id="XMLID_55_" class="st2" d="M52.9,386.7c-0.1,5.6-4.8,9.9-10.4,9.7c-5.4-0.2-9.6-4.6-9.5-10.1c0.1-5.6,4.7-9.9,10.4-9.7
	C48.8,376.8,53,381.4,52.9,386.7z"/>
<path id="XMLID_54_" class="st2" d="M472.9,386.5c0,5.5-4.7,10-10.3,9.9c-5.4-0.1-9.7-4.5-9.7-9.9c0-5.6,4.5-10,10.2-9.9
	C468.6,376.7,472.9,381.2,472.9,386.5z"/>
<path id="XMLID_53_" class="st2" d="M112.9,466.4c0.1,5.3-4.3,9.8-9.7,10c-5.7,0.2-10.2-4.2-10.3-9.8c-0.1-5.4,4.2-9.8,9.6-10
	C108.2,456.4,112.9,460.9,112.9,466.4z"/>
<path id="XMLID_52_" class="st3" d="M243,405.9c-27.8-1.4-53.3-10.3-75.7-26.5c-44.5-32.1-66.1-76.1-64.1-130.9
	c2.5-68.6,55.6-128.1,123.4-139.6c5.4-0.9,10.8-2,16.3-1.8c0.3,0.4,0.9,0.7,1,1.1c1.9,9,1.3,18.1,0.3,27.2c-0.2,2.2-2.4,3-4.4,3.5
	c-3.9,0.9-7.9,1.4-11.8,2.2c-48.6,10.1-86.7,52.1-92.2,101.5c-0.5,4.3-1,8.6-0.8,12.9c0.2,5.1,2.9,8.1,7.4,8.4
	c4.7,0.3,8-2.6,8.4-7.9c0.4-4.3,0.5-8.6,1.1-12.9c5.9-45.7,43.1-82.6,88.8-87.8c3.8-0.4,7.7,0.1,11.4-0.7c6.7-1.4,8.7-3.7,8.8-10.6
	c0.1-10,0-20,0.1-30c0-2.5-0.2-5.1,2-7c29.8,1.6,56.7,11.5,80.1,29.7c40.8,31.6,60.8,73.6,59.7,125.2
	c-1.5,69.5-55,130.8-123.5,142.1c-5.4,0.9-10.8,2-16.3,1.8c-0.3-0.4-0.9-0.7-1-1.1c-1.8-9.1-1.4-18.2-0.3-27.2
	c0.4-3.1,3.7-3.6,6.3-4c6.8-1,13.5-2.2,19.9-4.5c45.7-16,72.9-47.9,81.6-95.5c0.9-5,1.6-10.2,1.3-15.4c-0.3-5.9-3-9-7.8-9.1
	c-5-0.1-7.9,3.2-8.2,9.2c-1,22.4-7.5,43-21.6,60.6C314,343,289.1,356.8,257.8,358c-9.9,0.4-12.8,3.2-12.8,13c0,9.3,0,18.7,0,28
	C245,401.5,245.1,404,243,405.9z"/>
<path id="XMLID_51_" class="st4" d="M263,107.1c0,12,0,24,0,36c0,9.6-3.5,13.6-13,13.8c-22.2,0.3-41.9,7.5-59,21.3
	c-20.8,16.8-33.6,38.4-37.1,65.2c-0.6,4.1-0.8,8.3-1,12.4c-0.2,6.8-4,10.4-10.2,10.3c-6.1-0.1-9.8-4-9.7-10.8
	c0.4-29.1,10-54.7,28.9-76.8c20.3-23.7,46.3-36.9,76.9-41.3c3.7-0.5,4.2-2.1,4.2-5.2c-0.1-8.3,0-16.7,0-25
	C249.7,105.7,256.3,105.7,263,107.1z"/>
<path id="XMLID_50_" class="st4" d="M243,405.9c0-12,0.4-24-0.1-36c-0.4-10.6,4.9-13.7,13.5-13.8c15.3-0.2,29.6-4.1,43-11.3
	c27.9-15.1,45.2-38.1,51.6-69.2c1.2-6,2-12.1,2.1-18.3c0.1-6.4,3.7-10.2,9.6-10.4c6.3-0.1,10.3,3.5,10.3,10.2
	c0,15.6-3,30.8-9.1,45.2c-12.5,29.3-33.3,50.6-62.2,63.8c-9.9,4.5-20.2,7.8-31,8.9c-7.5,0.8-7.5,0.8-7.5,8.4c0,7.5,0,15,0,22.5
	C256.3,407.2,249.7,407.3,243,405.9z"/>
<path id="XMLID_49_" class="st5" d="M333.1,222.5c0,6.4-1.9,11.1-5.7,14.9c-32.2,32.3-64.5,64.5-96.7,96.8c-1.8,1.9-2.9,1.9-4.7,0
	c-15.7-15.9-31.6-31.5-47.2-47.4c-8-8.2-7.6-20.5,0.3-28.2c7.8-7.5,19.8-7.6,27.9,0.1c6.3,5.9,12.4,12.1,18.3,18.4
	c2.4,2.5,3.7,2.4,6.1,0c22.3-22.5,44.6-44.9,67.1-67.1c11.6-11.5,30-6.8,34,8.7C332.9,220.1,333,221.7,333.1,222.5z"/>
</svg>
